<?xml version="1.0" standalone="no"?><!DOCTYPE svg PUBLIC "-//W3C//DTD SVG 1.1//EN" "http://www.w3.org/Graphics/SVG/1.1/DTD/svg11.dtd"><svg t="1641653963180" class="icon" viewBox="0 0 1024 1024" version="1.1" xmlns="http://www.w3.org/2000/svg" p-id="6337" xmlns:xlink="http://www.w3.org/1999/xlink" width="32" height="32"><defs><style type="text/css"></style></defs><path d="M849.1 128 174.9 128c-25.9 0-46.9 21-46.9 46.9l0 34.2c0 25.9 21 46.9 46.9 46.9l674.2 0c25.9 0 46.9-21 46.9-46.9l0-34.2C896 149 875 128 849.1 128z" p-id="6338"></path><path d="M849.1 768 174.9 768c-25.9 0-46.9 21-46.9 46.9l0 34.2c0 25.9 21 46.9 46.9 46.9l674.2 0c25.9 0 46.9-21 46.9-46.9l0-34.2C896 789 875 768 849.1 768z" p-id="6339"></path><path d="M849.1 448 174.9 448c-25.9 0-46.9 21-46.9 46.9l0 34.2c0 25.9 21 46.9 46.9 46.9l674.2 0c25.9 0 46.9-21 46.9-46.9l0-34.2C896 469 875 448 849.1 448z" p-id="6340"></path></svg>