<?xml version="1.0" standalone="no"?><!DOCTYPE svg PUBLIC "-//W3C//DTD SVG 1.1//EN" "http://www.w3.org/Graphics/SVG/1.1/DTD/svg11.dtd"><svg t="1641929305621" class="icon" viewBox="0 0 1024 1024" version="1.1" xmlns="http://www.w3.org/2000/svg" p-id="4992" xmlns:xlink="http://www.w3.org/1999/xlink" width="200" height="200"><defs><style type="text/css"></style></defs><path d="M628.6 105.2s164.9-60.5 238.7-20.5c0 0 44.5 186.9 5.3 311.3 0 0 82.3 47-44 198.9 0 0 64 60.4-76.4 186.3 0 0 74.5 47.7-79.3 69.7 0 0-44.6 96.8-207.6 75.6 0 0 4.2 81.8-166-17.6l-98.5-69.8S68.3 542.4 192.6 429c0 0 12.3-116.2 97.6-153.6 0 0 68.5-183.8 172.3-127.6 0.1 0 132.4-112.9 166.1-42.6z" fill="#9DBF73" p-id="4993"></path><path d="M427.2 969.1c-7.9 0-16.7-1.1-26.2-3.3-28.1-6.4-64.1-22.3-107.1-47.4-0.3-0.2-0.6-0.3-0.8-0.5l-98.5-69.8c-1.6-1.1-2.9-2.7-3.7-4.5-1.4-3.1-33.8-76.3-51.5-164.9-10.4-52.4-13.4-99.2-8.8-139.1 5.7-49.4 23.1-88.4 51.7-116 1.4-9.5 5.8-34 17-61.6 18.4-45.1 46.8-77.7 82.3-94.8 8.5-21.2 48.3-111.9 111.1-135.5 22.6-8.5 45.5-7.5 68.3 3 8.5-6.8 25.6-20 46.2-32.7 40.2-24.7 72.7-34.7 96.6-29.7 12.3 2.6 22.3 9.2 29.6 19.4 35.8-12.1 171-53.7 239.1-16.8 2.7 1.5 4.7 4.1 5.4 7.1 0.5 1.9 11.4 48.1 17.6 110.4 8 80.3 4.6 147.3-10.3 199.3 7.6 6.8 19.1 20.3 23.1 42.7 7.8 42.8-14.4 96.8-65.8 160.5 5.3 8.2 11.8 22.4 11.5 42.7-0.5 42.5-29.2 90.6-85.2 143 7.2 7.3 14.7 18.6 11.7 32.2-5 23-37 38.3-100.7 47.9-5.4 9-18.6 27.7-43.5 44.7-19.5 13.3-42.2 22.9-67.5 28.6-28.3 6.4-60 7.8-94.3 4.3-2.4 8-7.6 17.1-17.7 23.2-7.8 5.2-17.8 7.6-29.6 7.6z m-121.9-69.4c32.8 19.1 111.3 61 140.2 43.4 9.1-5.6 8.8-15.9 8.8-16-0.2-3.2 1.1-6.4 3.5-8.6 2.4-2.2 5.6-3.2 8.9-2.8 63.3 8.2 117.3-1.2 156.2-27.3 29.2-19.6 40-41.9 40.1-42.1 1.6-3.4 4.7-5.7 8.4-6.2 79.4-11.3 87.1-28.3 87.8-31.6 1.4-6.3-8.3-15-12.9-18-2.9-1.9-4.7-5-5-8.4-0.3-3.4 1.1-6.7 3.6-9 70.9-63.6 86.6-108.3 87.3-134.6 0.6-23.1-10.2-34.6-11.1-35.6-4.4-3.9-4.6-10.4-0.9-15 63.2-76 71.2-122.8 66.8-148.6-4-23.5-18.6-33-19.8-33.8-4.6-2.5-6.5-7.8-5-12.8 34.3-109 2.1-270.3-4.4-300.5-28.4-13-75-13.6-135.3-1.5-49.1 9.8-89.7 24.6-90.1 24.8-5.3 1.9-11.2-0.5-13.7-5.6-4.3-9-10.5-14.1-19.4-16-37.2-7.9-106.2 42.2-129.7 62.2-3.4 2.9-8.3 3.5-12.3 1.3-19.4-10.5-38-12.2-56.8-5.1-60.4 22.6-99.6 125.9-100 126.9-1 2.8-3.2 5-5.9 6.2-78.6 34.5-91 143.6-91.1 144.7-0.3 2.7-1.5 5.1-3.5 6.9-111 101.2-3 365.2 9.7 394.8l95.6 67.9z" fill="#5C7432" p-id="4994"></path><path d="M330 784.8c-2.8 0-5.7-1.1-7.8-3.3-4.2-4.3-4.2-11.3 0.2-15.5 1.6-1.6 159.3-156.5 221.8-284.5 64.1-131 175-255 176.1-256.3 4-4.5 11-4.9 15.5-0.8 4.5 4 4.9 11 0.8 15.5-1.1 1.2-110 123-172.7 251.2-27 55.2-73.3 121-137.6 195.3-47.7 55.2-88.2 94.8-88.6 95.2-2.2 2.1-5 3.2-7.7 3.2z" fill="#5C7432" p-id="4995"></path><path d="M600.7 423.6c-6.1 0-11-4.9-11-11s4.9-11 10.9-11c0.9 0 90.2-0.8 168.6-48 5.2-3.1 11.9-1.5 15.1 3.7 3.1 5.2 1.5 11.9-3.7 15.1-83.7 50.5-176 51.2-179.9 51.2zM546.6 566.7c-18.5 0-30.3-0.9-31.1-1-6-0.5-10.5-5.8-10-11.8 0.5-6 5.8-10.5 11.8-10 0.3 0 32.2 2.6 73.4-0.9 37.5-3.1 90.7-12 131.2-36.4 5.2-3.1 11.9-1.5 15.1 3.7 3.1 5.2 1.5 11.9-3.7 15.1-35.5 21.4-82.9 34.7-141.1 39.5-17.5 1.4-33.1 1.8-45.6 1.8zM475.8 719.8c-42.3 0-74-5.7-75.4-6-6-1.1-9.9-6.8-8.8-12.8 1.1-6 6.8-9.9 12.8-8.8 1.5 0.3 127.3 22.6 204.6-24.1 5.2-3.1 11.9-1.5 15.1 3.7s1.5 11.9-3.7 15.1c-35.7 21.5-83.7 32.6-142.5 32.9h-2.1z" fill="#5C7432" p-id="4996"></path><path d="M591.9 428c-5.2 0-9.8-3.7-10.8-9-0.7-3.8-16.9-94.7 17.4-186.2 2.1-5.7 8.4-8.5 14.1-6.4 5.7 2.1 8.5 8.4 6.4 14.1-32.2 85.8-16.5 173.6-16.4 174.5 1.1 6-2.8 11.7-8.8 12.8-0.6 0.1-1.3 0.2-1.9 0.2z" fill="#5C7432" p-id="4997"></path><path d="M511.8 564.4c-4.4 0-8.5-2.6-10.2-6.9-2.6-6.6-63.2-162.4-28.5-255 2.1-5.7 8.4-8.5 14.1-6.4 5.7 2.1 8.5 8.4 6.4 14.1-31.8 84.7 27.7 237.7 28.3 239.2 2.2 5.6-0.6 12-6.2 14.2-1.2 0.6-2.6 0.8-3.9 0.8z" fill="#5C7432" p-id="4998"></path><path d="M400.6 709.4c-4.4 0-8.6-2.7-10.2-7-0.5-1.3-12.3-32.4-20-75-10.5-57.9-8.4-107.1 6.3-146.1 2.1-5.7 8.4-8.5 14.1-6.4 5.7 2.1 8.5 8.4 6.4 14.1-31.8 84.8 13.3 204.4 13.7 205.6 2.2 5.7-0.7 12-6.3 14.2-1.4 0.3-2.7 0.6-4 0.6z" fill="#5C7432" p-id="4999"></path></svg>